{"title":"Beyond.the.Trophy.2012 NL","uid":8368612,"size":382264304,"categoryP":"video","categoryS":"handheld","magnet":"?xt=urn:btih:fea7c80feae57ee8c38ade789bc4a926dbf1c8f3&amp;dn=Beyond.the.Trophy.2012+NL&amp;tr=udp%3A%2F%2Ftracker.openbittorrent.com%3A80&amp;tr=udp%3A%2F%2Fopen.demonii.com%3A1337&amp;tr=udp%3A%2F%2Ftracker.coppersurfer.tk%3A6969&amp;tr=udp%3A%2F%2Fexodus.desync.com%3A6969","seeders":0,"leechers":0,"uploader":"facemovies","files":-1,"time":1365843833,"description":"Format                         : Flash Video\nFile size                      : 365 MiB\nDuration                       : 1h 38mn\nOverall bit rate               : 520 Kbps\nhttphostheader                 : r19---sn-30a7en76.googlevideo.com\n\nVideo\nFormat                         : AVC\nFormat/Info                    : Advanced Video Codec\nFormat profile                 : &lt;a class=&quot;__cf_email__&quot; href=&quot;/cdn-cgi/l/email-protection&quot; data-cfemail=&quot;793418101739354a5749&quot;&gt;[email&amp;#160;protected]&lt;/a&gt;&lt;script cf-hash='f9e31' type=&quot;text/javascript&quot;&gt;\n/* &lt;![CDATA[ */!function(){try{var t=&quot;currentScript&quot;in document?document.currentScript:function(){for(var t=document.getElementsByTagName(&quot;script&quot;),e=t.length;e--;)if(t[e].getAttribute(&quot;cf-hash&quot;))return t[e]}();if(t&amp;&amp;t.previousSibling){var e,r,n,i,c=t.previousSibling,a=c.getAttribute(&quot;data-cfemail&quot;);if(a){for(e=&quot;&quot;,r=parseInt(a.substr(0,2),16),n=2;a.length-n;n+=2)i=parseInt(a.substr(n,2),16)^r,e+=String.fromCharCode(i);e=document.createTextNode(e),c.parentNode.replaceChild(e,c)}}}catch(u){}}();/* ]]&gt; */&lt;/script&gt;\nFormat settings, CABAC         : Yes\nFormat settings, ReFrames      : 3 frames\nFormat settings, GOP           : M=1, N=60\nCodec ID                       : 7\nDuration                       : 1h 38mn\nBit rate                       : 382 Kbps\nWidth                          : 640 pixels\nHeight                         : 352 pixels\nDisplay aspect ratio           : 16:9\nFrame rate mode                : Constant\nFrame rate                     : 29.970 fps\nColor space                    : YUV\nChroma subsampling             : 4:2:0\nBit depth                      : 8 bits\nScan type                      : Progressive\nBits/(Pixel*Frame)             : 0.057\nStream size                    : 268 MiB (74%)\n\nAudio\nFormat                         : AAC\nFormat/Info                    : Advanced Audio Codec\nFormat profile                 : LC\nCodec ID                       : 10\nDuration                       : 1h 38mn\nBit rate                       : 129 Kbps\nChannel(s)                     : 2 channels\nChannel positions              : Front: L R\nSampling rate                  : 44.1 KHz\nCompression mode               : Lossy\nStream size                    : 90.3 MiB (25%)\n\n","torrent":{"xt":"urn:btih:fea7c80feae57ee8c38ade789bc4a926dbf1c8f3","amp;dn":"Beyond.the.Trophy.2012+NL","amp;tr":["udp%3A%2F%2Ftracker.openbittorrent.com%3A80","udp%3A%2F%2Fopen.demonii.com%3A1337","udp%3A%2F%2Ftracker.coppersurfer.tk%3A6969","udp%3A%2F%2Fexodus.desync.com%3A6969"],"infoHash":"fea7c80feae57ee8c38ade789bc4a926dbf1c8f3","infoHashBuffer":{"type":"Buffer","data":[254,167,200,15,234,229,126,232,195,138,222,120,155,196,169,38,219,241,200,243]},"announce":[],"urlList":[]}}